<svg width="108" height="93" viewBox="0 0 108 93" fill="none" xmlns="http://www.w3.org/2000/svg">
<path fill-rule="evenodd" clip-rule="evenodd" d="M75.3726 11.4949C74.5897 10.3504 63.0414 -1.77534 58.5396 0.221607C52.8633 3.09074 55.7993 22.0519 62.0628 24.992" fill="#D7882D"/>
<path fill-rule="evenodd" clip-rule="evenodd" d="M61.2797 3.22097C59.3224 3.33542 58.5394 5.58297 58.3437 7.24446C57.365 13.1722 58.5394 19.4669 61.8669 24.4987C62.2584 25.2485 62.8456 25.9195 63.6285 26.4128C67.7389 22.2886 71.8493 18.1448 75.764 13.8233C72.0451 9.83733 68.1304 5.98157 63.237 3.65706C62.6498 3.40448 62.0626 3.20913 61.2797 3.22097Z" fill="#FFF6D5"/>
<path d="M70.2289 80.0872L68.5879 59.2629C68.342 56.1427 65.6341 53.8142 62.5396 54.062C59.4451 54.3099 57.1358 57.0402 57.3817 60.1605L59.0228 80.9847C59.2687 84.1049 61.9766 86.4334 65.0711 86.1856C68.1656 85.9377 70.4748 83.2074 70.2289 80.0872Z" fill="#F28C1A"/>
<path fill-rule="evenodd" clip-rule="evenodd" d="M63.2371 85.9461C61.6713 85.5909 60.3011 84.407 59.5182 82.927C59.1267 82.1574 59.1267 81.6839 58.7353 77.7571L58.3438 73.3961L60.4969 73.3567C63.4329 73.258 65.586 72.7647 69.1092 71.4426C69.5006 71.3242 69.5006 71.6202 69.6964 75.9022C70.2836 81.013 70.0878 81.8812 69.3049 83.2625C68.1305 85.3936 65.586 86.5184 63.2371 85.9461Z" fill="#FFF6D5"/>
<path d="M64.5877 36.6343H22.0156C11.9731 36.6343 3.832 44.8416 3.832 54.9659V57.0971C3.832 67.2213 11.9731 75.4287 22.0156 75.4287H64.5877C74.6302 75.4287 82.7713 67.2213 82.7713 57.0971V54.9659C82.7713 44.8416 74.6302 36.6343 64.5877 36.6343Z" fill="#D7882D"/>
<path fill-rule="evenodd" clip-rule="evenodd" d="M87.508 12.0078C88.0952 10.8633 99.6435 -1.41435 104.145 0.527349C109.822 3.32544 107.081 22.328 100.818 25.3471" fill="#D7882D"/>
<path fill-rule="evenodd" clip-rule="evenodd" d="M101.405 3.5603C103.362 3.65107 104.145 5.88876 104.341 7.5463C105.32 13.4681 104.341 19.7628 101.209 24.8538C100.622 25.6037 100.035 26.2746 99.2521 26.7876C95.1417 22.703 91.0313 18.6183 86.9209 14.356C90.6398 10.3108 94.5545 6.4097 99.4478 4.02205C100.035 3.76158 100.622 3.5603 101.405 3.5603Z" fill="#FFF6D5"/>
<path fill-rule="evenodd" clip-rule="evenodd" d="M101.797 8.61392C100.035 9.54136 98.6648 11.416 97.4904 12.9551C97.8819 14.9284 98.4691 17.4147 100.035 18.0461C100.622 18.1843 101.405 18.1251 101.405 17.0398C101.797 14.3167 102.188 11.4357 101.992 8.69286C101.797 8.55473 101.797 8.4758 101.797 8.61392Z" fill="#F5B8B8"/>
<path fill-rule="evenodd" clip-rule="evenodd" d="M67.739 14.889C75.5684 6.65451 92.01 7.90951 96.7076 14.889C102.188 23.4332 102.188 36.2792 94.3588 42.5147C84.5721 52.0653 72.2409 54.3937 63.0414 45.6719C64.0201 35.1544 60.6926 20.8088 67.739 14.889Z" fill="#D7882D"/>
<path fill-rule="evenodd" clip-rule="evenodd" d="M81.2445 63.8652C80.4616 50.23 63.237 44.8824 62.8456 32.806C62.8456 32.806 63.4328 23.2751 63.6285 23.2751C63.8242 24.0447 68.1304 34.286 76.3512 35.1345C80.4616 35.391 87.508 35.9435 92.4013 34.3649C96.5117 32.6482 99.6435 25.6431 100.622 24.321C100.231 30.3394 100.818 30.4973 99.4477 35.2331C97.8819 40.6399 93.1843 43.9944 88.8781 46.9938C87.508 47.9212 84.3763 49.4012 83.2019 49.8353C82.2232 50.1116 82.2232 50.1708 82.2232 50.5457C83.2019 54.8079 82.8104 60.6093 81.636 63.7074L81.2445 64.4375V63.8652Z" fill="#FFF6D5"/>
<path d="M94.3588 41.3503C91.8142 45.5139 85.9422 43.5998 84.7678 43.738C83.5934 43.8958 78.5043 45.5928 75.1769 41.4095C73.611 39.2192 80.2659 28.2873 84.7678 28.1294C89.4654 28.1097 95.7289 39.0416 94.3588 41.3503Z" fill="#FFF6D5"/>
<path fill-rule="evenodd" clip-rule="evenodd" d="M76.5471 25.2684C74.9812 25.2684 73.4153 26.926 73.8068 28.7808C74.394 31.2079 77.33 31.8591 78.8959 30.1621C79.8745 29.0571 79.6788 26.8076 78.5044 25.9196C77.9172 25.4657 77.1343 25.2289 76.5471 25.2684Z" fill="black"/>
<path fill-rule="evenodd" clip-rule="evenodd" d="M92.2057 24.8736C90.6399 24.8736 89.074 26.5312 89.4655 28.386C90.0527 30.8132 92.9887 31.4643 94.5545 29.7673C95.5332 28.6623 95.3375 26.4128 94.1631 25.5248C93.5759 25.071 92.7929 24.8342 92.2057 24.8736Z" fill="black"/>
<path d="M79.275 85.242L77.6339 64.4177C77.388 61.2975 74.6801 58.969 71.5856 59.2168C68.4911 59.4647 66.1819 62.195 66.4278 65.3153L68.0688 86.1395C68.3147 89.2597 71.0226 91.5882 74.1171 91.3404C77.2116 91.0925 79.5209 88.3622 79.275 85.242Z" fill="#D7882D"/>
<path fill-rule="evenodd" clip-rule="evenodd" d="M72.2408 91.1163C70.675 90.7611 69.3048 89.5771 68.5219 88.0972C68.1304 87.3276 68.1304 86.854 67.739 82.9272L67.3475 78.5663L69.5006 78.5268C72.4366 78.4282 74.5896 77.9349 78.1128 76.6128C78.5043 76.4944 78.5043 76.7904 78.7 81.0724C79.2872 86.1831 79.0915 87.0514 78.3086 88.4326C77.1342 90.5638 74.5896 91.6885 72.2408 91.1163Z" fill="#FFF6D5"/>
<path d="M14.0842 81.1649L16.5914 60.4283C16.9671 57.3213 14.7732 54.4955 11.6912 54.1168C8.60919 53.738 5.80621 55.9498 5.43055 59.0569L2.92339 79.7934C2.54773 82.9005 4.74163 85.7262 7.82361 86.105C10.9056 86.4837 13.7086 84.2719 14.0842 81.1649Z" fill="#D7882D"/>
<path fill-rule="evenodd" clip-rule="evenodd" d="M6.20033 85.5318C4.71275 84.8412 3.49921 83.3809 3.10774 81.8023C2.81414 80.9538 2.87286 80.4802 3.34262 76.5732L3.87111 72.2517L5.98503 72.6266C8.88188 73.1199 11.0545 73.0607 14.6756 72.4688C15.0866 72.4293 15.0475 72.7253 14.5386 76.9678C13.9122 82.0588 13.6186 82.8876 12.6791 84.1308C11.0741 85.9462 8.25553 86.5184 6.20033 85.5318Z" fill="#FFF6D5"/>
<path opacity="0.2" fill-rule="evenodd" clip-rule="evenodd" d="M11.3285 83.9729C10.7805 83.2428 10.6043 82.7692 7.57043 72.9621C6.02413 68.0289 4.86931 64.0232 4.88889 63.668C4.88889 63.076 4.88888 63.076 5.33907 64.1219C6.96366 67.8908 10.3694 71.4821 13.8926 73.1397C15.0083 73.6527 14.9692 73.3567 14.4211 77.7374C14.0101 81.013 13.8143 81.9799 13.4033 82.7692C13.1293 83.302 12.0723 84.5254 11.8766 84.5254C11.7983 84.5254 11.5634 84.2689 11.3285 83.9729Z" fill="black"/>
<path d="M27.4305 84.0393L22.4639 63.7582C21.7197 60.7193 18.6728 58.864 15.6585 59.6143C12.6442 60.3645 10.8039 63.4362 11.5481 66.475L16.5148 86.7562C17.2589 89.795 20.3058 91.6503 23.3201 90.9C26.3344 90.1498 28.1747 87.0781 27.4305 84.0393Z" fill="#D7882D"/>
<path d="M13.0315 45.5139C9.68443 45.5139 6.65056 47.2109 4.51707 49.9538C4.06688 51.5521 3.832 53.2294 3.832 54.9659V57.097C3.832 63.8456 7.43349 69.7259 12.7966 72.9029C13.1685 73.2186 13.2859 73.4159 13.3642 73.7119C13.4621 74.0473 14.2254 77.2046 15.0867 80.717C16.9266 88.2549 17.1223 88.7482 18.649 89.8532C19.5103 90.5044 19.6473 90.4649 19.1971 89.7348C18.9818 89.3796 18.7273 88.8666 18.6294 88.6101C18.512 88.2746 16.496 80.1447 14.9692 73.9092C20.5476 72.8042 24.8146 66.9041 24.8146 59.8201C24.8146 51.9073 19.5494 45.5139 13.0315 45.5139Z" fill="#FFF6D5"/>
<path opacity="0.2" fill-rule="evenodd" clip-rule="evenodd" d="M9.44952 61.2212C8.49043 61.1423 7.06157 60.6884 6.3765 60.1754C5.37826 59.4848 4.51703 58.1824 4.08642 56.7814L3.89069 56.0907L4.84978 56.8603C8.76445 60.057 15.3607 57.4918 17.4354 51.9863C17.7486 51.1773 18.0226 50.5261 18.0618 50.5261C18.1009 50.5261 18.1792 51.2365 18.2184 52.1047C18.2771 53.4663 18.2184 53.9004 17.7682 55.1238C16.4568 58.8533 12.9532 61.4383 9.44952 61.2212Z" fill="black"/>
<path fill-rule="evenodd" clip-rule="evenodd" d="M21.6633 90.9583C20.0191 90.8596 18.3946 89.9125 17.455 88.5904C16.8874 87.8997 16.77 87.4261 15.8304 83.598L14.7931 79.3752L16.907 78.9608C19.8038 78.3886 21.8199 77.5598 24.9908 75.6852C25.3431 75.5273 25.4214 75.8036 26.4392 79.9672C27.6136 84.9398 27.6136 85.8278 27.2221 87.3077C26.3805 89.5967 23.9338 91.1359 21.6633 90.9583Z" fill="#FFF6D5"/>
<path opacity="0.2" fill-rule="evenodd" clip-rule="evenodd" d="M39.7491 47.4478C42.2936 63.2339 35.2472 73.9882 25.4214 75.4484C33.2899 71.6203 40.7278 59.8793 39.7491 47.4478Z" fill="black"/>
<path opacity="0.2" fill-rule="evenodd" clip-rule="evenodd" d="M27.2222 75.0736C29.7667 74.4027 31.9198 73.0609 34.0728 70.9495C35.443 69.6274 35.443 69.5879 36.2259 69.5879C37.596 69.5879 42.8808 69.0946 45.4254 68.7591C50.123 68.1277 54.6249 67.1411 58.7353 65.8584C61.2798 65.0691 65.1945 63.6286 66.3689 62.9972C66.7603 62.7999 67.1518 62.6815 67.1518 62.7209C67.1518 62.7604 66.9561 63.1156 66.7603 63.5102C66.3689 64.5561 66.3689 66.0755 66.7603 70.8903C66.9561 74.2053 66.9561 75.0933 66.7603 75.192C66.7603 75.2709 57.5609 75.3301 46.404 75.3301C28.5923 75.3104 26.4197 75.2906 27.2222 75.0736Z" fill="black"/>
<path opacity="0.2" fill-rule="evenodd" clip-rule="evenodd" d="M63.4328 85.9462C63.0413 85.7489 62.4541 84.782 62.0627 83.7954C61.8669 83.1639 61.084 75.6261 61.2797 75.4682C61.2797 75.4485 62.6499 75.409 64.2157 75.3893L67.1517 75.3301L67.3475 76.3956V79.3555C67.5432 80.4014 67.5432 82.0786 67.7389 83.1047L67.9347 84.9596L66.956 85.4529C65.9773 85.9857 64.2157 86.2225 63.4328 85.9462Z" fill="black"/>
<path opacity="0.2" fill-rule="evenodd" clip-rule="evenodd" d="M79.6787 44.2313C78.7001 43.9353 77.5257 43.146 76.9385 42.3369C76.547 41.9028 76.3513 41.5476 76.1555 41.0346V40.3242L76.7427 41.0346C77.3299 41.962 78.5043 42.7513 79.6787 43.1065C80.6574 43.4617 82.419 43.4814 83.9849 43.1855C84.7678 43.0079 85.1593 43.0079 86.5294 43.1657C89.6611 43.5012 91.4227 42.9487 92.7929 41.4095L93.3801 40.6597V41.2122C93.3801 41.666 93.1843 41.9226 92.5971 42.7119C91.8142 43.4814 91.4227 43.7182 90.8355 43.9945C89.8569 44.3102 89.4654 44.3497 86.9209 44.3102C85.355 44.2905 83.3977 44.33 82.2233 44.3891C80.8531 44.4681 80.2659 44.4286 79.6787 44.2313Z" fill="black"/>
<path opacity="0.4" fill-rule="evenodd" clip-rule="evenodd" d="M68.1305 41.1531C70.8708 46.6585 79.2873 49.3816 81.8318 49.6973C82.2233 49.8157 82.8105 52.1244 82.2233 52.1244C77.33 51.0589 68.1305 45.0207 68.1305 41.1531Z" fill="black" fill-opacity="0.4201"/>
<path fill-rule="evenodd" clip-rule="evenodd" d="M90.8356 26.906C90.4441 26.906 90.0526 27.3007 90.2484 27.7348C90.4441 28.307 91.0313 28.4649 91.4228 28.0505C91.6185 27.8137 91.6185 27.2612 91.227 27.0639C91.0313 26.9455 91.0313 26.906 90.8356 26.906Z" fill="white"/>
<path fill-rule="evenodd" clip-rule="evenodd" d="M75.764 26.8862C75.1768 26.8862 74.7854 27.2809 74.9811 27.7347C75.1768 28.307 75.9598 28.4451 76.1555 28.0307C76.3512 27.7939 76.3512 27.2414 75.9598 27.0638C75.9598 26.9454 75.9598 26.8862 75.764 26.8862Z" fill="white"/>
<path fill-rule="evenodd" clip-rule="evenodd" d="M84.7678 34.1677C83.3976 34.2467 82.0275 34.7005 80.6574 35.4701C80.4616 37.8578 82.0275 40.4822 84.572 40.719C87.508 41.2123 90.0526 37.9367 89.4654 35.2333C88.0952 34.444 86.5294 34.0888 84.7678 34.1677Z" fill="black"/>
<path fill-rule="evenodd" clip-rule="evenodd" d="M84.9634 40.936V42.5738Z" fill="black"/>
<path d="M84.9634 40.936V42.5738" stroke="black" stroke-width="4" stroke-linecap="round" stroke-linejoin="round"/>
<path fill-rule="evenodd" clip-rule="evenodd" d="M87.3123 43.304L84.572 42.6528Z" fill="black"/>
<path d="M87.3123 43.304L84.572 42.6528" stroke="black" stroke-width="4" stroke-linecap="round" stroke-linejoin="round"/>
<path fill-rule="evenodd" clip-rule="evenodd" d="M82.6147 43.304L85.355 42.6528Z" fill="black"/>
<path d="M82.6147 43.304L85.355 42.6528" stroke="black" stroke-width="4" stroke-linecap="round" stroke-linejoin="round"/>
<path fill-rule="evenodd" clip-rule="evenodd" d="M6.53029 57.5995C2.92315 56.2879 1.58203 52.0397 3.53875 48.1C5.49548 44.1602 10.0007 42.0378 13.6078 43.3494C17.2109 44.6595 18.5601 48.9107 16.6034 52.8504C14.6467 56.7902 10.1333 58.9096 6.53029 57.5995Z" fill="#FFF6D5"/>
<path fill-rule="evenodd" clip-rule="evenodd" d="M6.55945 56.3467C3.20724 55.0987 2.04964 50.8964 3.97785 46.9497C5.90606 43.003 10.1816 40.8234 13.5338 42.0714C16.8822 43.3179 18.0474 47.523 16.1192 51.4697C14.191 55.4164 9.90787 57.5932 6.55945 56.3467Z" fill="#D7882D"/>
<path d="M6.36094 63.404C6.40881 62.9981 6.1213 62.63 5.71876 62.5818C5.31622 62.5335 4.95109 62.8234 4.90321 63.2292L3.49706 75.1485C3.44918 75.5544 3.7367 75.9225 4.13924 75.9707C4.54178 76.019 4.90691 75.7291 4.95478 75.3233L6.36094 63.404Z" fill="#FFF6D5"/>
<path fill-rule="evenodd" clip-rule="evenodd" d="M84.7678 12.0474C83.0062 12.0079 81.4404 13.5865 81.2446 15.2835C81.2446 18.6183 80.0702 24.4987 82.419 26.9061C83.3977 27.5572 82.6148 32.0957 84.5721 32.0957C86.7252 32.2339 85.7465 27.7743 86.9209 26.9455C89.074 24.8933 88.291 18.6183 88.291 15.1651C88.291 13.3102 86.5294 11.929 84.7678 12.0474Z" fill="#FFF6D5"/>
<path fill-rule="evenodd" clip-rule="evenodd" d="M63.6286 7.64697C62.2584 7.9627 62.2584 9.44264 62.0627 10.4293C61.6712 12.1263 61.8669 15.027 62.0627 16.7043C63.6286 17.3554 65.1944 17.2173 66.3688 16.1715C68.1304 14.8691 68.7176 13.6852 69.5006 12.0079C67.739 10.6661 65.7816 8.06136 63.6286 7.64697Z" fill="#F5B8B8"/>
</svg>
