<svg width="64" height="34" viewBox="0 0 64 34" fill="none" xmlns="http://www.w3.org/2000/svg">
<path d="M3.85601 16.7919C1.98772 18.6028 0.943797 20.8832 0.873109 23.4995C0.817696 25.8334 1.684 28.1463 3.28693 29.9325C5.02344 31.8676 7.57863 33.068 10.2694 33.0719C15.0115 33.1159 19.1718 29.517 19.7062 24.8722L44.1975 25.0637C44.373 27.056 45.1955 28.8709 46.5312 30.3594C48.2677 32.2945 50.8229 33.4949 53.4469 33.4244C58.6127 33.4913 62.8779 29.2607 62.9448 24.0949C62.9411 21.5454 61.9412 19.0836 60.1226 17.3566C61.9909 15.5456 63.0349 13.2652 63.1055 10.6489C63.161 8.3151 62.2947 6.00219 60.6917 4.21589C58.9552 2.28079 56.4 1.08039 53.7093 1.07649C51.1598 1.08029 48.7725 2.0134 46.9786 3.7575C45.408 5.3013 44.3794 7.29929 44.1904 9.48429L19.7735 9.22589C19.598 7.23359 18.7832 5.2776 17.3807 3.7146C15.6441 1.7795 13.089 0.579095 10.3982 0.575195C5.44041 0.590295 1.10841 4.74649 1.10825 9.98669C1.0452 12.4618 2.04508 14.9236 3.85601 16.7919ZM10.6405 2.6419C12.692 2.6821 14.6976 3.5695 16.1001 5.1325C17.3023 6.4721 17.9835 8.2793 18.0255 10.1228L18.0178 10.264C17.9873 10.8288 18.4624 11.2086 19.0273 11.2391L45.3544 11.53C45.6368 11.5453 45.9269 11.4194 46.0757 11.2858C46.299 11.0854 46.3811 10.8774 46.3964 10.595L46.404 10.4538C46.3697 8.46909 47.2495 6.60469 48.6712 5.19449C50.093 3.78429 51.9746 3.0363 53.9592 3.002C56.0107 3.0422 58.0163 3.92959 59.4188 5.49249C60.6878 6.90659 61.3022 8.63939 61.2697 10.5496C61.2143 12.8835 60.1036 15.0895 58.1915 16.4023C57.9682 16.6027 57.8117 16.8775 57.7964 17.1599C57.7811 17.4424 57.9739 17.8069 58.2487 17.9633C60.0825 19.408 61.2389 21.595 61.1835 23.9288C61.1032 28.0317 57.7387 31.3196 53.7026 31.3138C51.6512 31.2736 49.6456 30.3862 48.243 28.8232C47.0408 27.4836 46.3596 25.6764 46.3177 23.8329C46.3483 23.2681 45.8731 22.8883 45.3082 22.8578L18.7579 22.7673C18.193 22.7367 17.8132 23.2119 17.7827 23.7767C17.6356 27.8052 14.2712 31.0931 10.3095 31.0205C8.25806 30.9803 6.25244 30.0929 4.84988 28.5299C3.5809 27.1158 2.96647 25.3831 2.99897 23.4729C3.05439 21.139 4.16509 18.933 6.07726 17.6202C6.30054 17.4198 6.45703 17.145 6.47231 16.8626C6.48758 16.5801 6.42843 16.3645 6.22807 16.1412C6.16128 16.0668 6.16128 16.0668 6.09449 15.9924C4.26064 14.5477 3.10427 12.3607 3.15969 10.0269C3.09875 5.9164 6.46321 2.6284 10.6405 2.6419Z" fill="#FFE99C"/>
</svg>
